Coordinates
version=1
nRows=34
nColumns=38
inDegrees=no

Units are S.I. units (second, meters, Newtons, ...)
If the header above contains a line with 'inDegrees', this indicates whether rotational values are in degrees (yes) or radians (no).

endheader
time	pelvis_tilt	pelvis_list	pelvis_rotation	pelvis_tx	pelvis_ty	pelvis_tz	hip_flexion_r	hip_adduction_r	hip_rotation_r	knee_angle_r	ankle_angle_r	subtalar_angle_r	mtp_angle_r	hip_flexion_l	hip_adduction_l	hip_rotation_l	knee_angle_l	ankle_angle_l	subtalar_angle_l	mtp_angle_l	lumbar_extension	lumbar_bending	lumbar_rotation	arm_flex_r	arm_add_r	arm_rot_r	elbow_flex_r	pro_sup_r	wrist_flex_r	wrist_dev_r	arm_flex_l	arm_add_l	arm_rot_l	elbow_flex_l	pro_sup_l	wrist_flex_l	wrist_dev_l
1.1	1.05532	1.52695	0.725938	0.667661	1.48803	1.01587	0.65636	-0.0379082	-0.0411848	0.927701	-0.158249	0	0	0.0811567	-0.0529645	-0.226238	0.586798	-0.0602963	0	0	-0.0985404	0.0864235	0.0187441	-0.29008	-0.295453	0.167252	0.559723	1.18938	0	0	0.342997	-0.524697	1.01634	0.644205	1.12983	0	0
1.11	0.980359	1.5214	0.804991	0.667674	1.49831	1.01457	0.66274	-0.0406788	-0.042263	0.876296	-0.148211	0	0	0.0766936	-0.0563233	-0.22254	0.584484	-0.056819	0	0	-0.092487	0.087883	0.0183034	-0.290011	-0.295873	0.174627	0.558381	1.17607	0	0	0.353805	-0.529538	1.00827	0.65695	1.13369	0	0
1.12	0.909433	1.51388	0.88041	0.667639	1.50867	1.01308	0.667493	-0.0426719	-0.0433529	0.818101	-0.137698	0	0	0.0750455	-0.0605055	-0.218392	0.583818	-0.0534074	0	0	-0.0848095	0.0902086	0.0160676	-0.288055	-0.298169	0.18978	0.55542	1.15446	0	0	0.361123	-0.534417	0.995292	0.670005	1.13914	0	0
1.13	0.856888	1.50606	0.937846	0.667518	1.51903	1.0115	0.669232	-0.044792	-0.04444	0.75534	-0.128127	0	0	0.0739482	-0.0647435	-0.213482	0.584265	-0.0503898	0	0	-0.0763449	0.0934794	0.0186214	-0.293219	-0.29202	0.168715	0.553811	1.17315	0	0	0.377588	-0.53432	1.00537	0.673872	1.13112	0	0
1.14	0.817971	1.49793	0.981739	0.667321	1.52945	1.00993	0.666805	-0.0467967	-0.0449609	0.685842	-0.118551	0	0	0.0727981	-0.0690332	-0.207201	0.58479	-0.0463603	0	0	-0.068178	0.0970516	0.0193421	-0.29596	-0.287151	0.153123	0.550337	1.18844	0	0	0.390504	-0.53436	1.01029	0.677447	1.12813	0	0
1.15	0.800754	1.48988	1.00364	0.667058	1.54	1.00857	0.656841	-0.0475378	-0.0430651	0.603516	-0.123177	0	0	0.0699384	-0.0742103	-0.200513	0.583804	-0.0410733	0	0	-0.0627923	0.101993	0.0126971	-0.292345	-0.285452	0.14762	0.545239	1.20229	0	0	0.386595	-0.537067	0.976789	0.687466	1.15394	0	0
1.16	0.789334	1.48184	1.01974	0.666713	1.55068	1.00717	0.641958	-0.0482518	-0.0393055	0.514378	-0.125983	0	0	0.06644	-0.0797599	-0.194323	0.582204	-0.0380862	0	0	-0.0566059	0.106903	0.00983987	-0.289313	-0.288556	0.161587	0.539578	1.18599	0	0	0.390522	-0.537735	0.966386	0.692501	1.16215	0	0
1.17	0.795619	1.47488	1.01829	0.666351	1.56156	1.00594	0.619752	-0.0479674	-0.0320515	0.417778	-0.137442	0	0	0.0603602	-0.0863511	-0.188516	0.579411	-0.0352827	0	0	-0.052613	0.112576	0.0059165	-0.283702	-0.294277	0.187578	0.532312	1.15887	0	0	0.39211	-0.538601	0.953094	0.697631	1.17225	0	0
1.18	0.80682	1.46843	1.01213	0.666019	1.57264	1.00467	0.594287	-0.0468011	-0.0201261	0.321638	-0.140253	0	0	0.0533834	-0.0936062	-0.183245	0.576934	-0.0321568	0	0	-0.0491631	0.118217	0.000178033	-0.276266	-0.301736	0.222933	0.524407	1.12269	0	0	0.391146	-0.54115	0.939384	0.704189	1.17883	0	0
1.19	0.833147	1.46406	0.990861	0.665734	1.58389	1.0035	0.56471	-0.0445067	-0.00312936	0.227489	-0.169176	0	0	0.0433435	-0.101917	-0.180285	0.574833	-0.0310382	0	0	-0.0484407	0.125535	0.00131994	-0.281247	-0.295412	0.191741	0.522629	1.15912	0	0	0.400264	-0.537388	0.945072	0.700347	1.17937	0	0
1.2	0.86987	1.46163	0.959188	0.665531	1.5953	1.00243	0.534655	-0.0418152	0.0164889	0.143043	-0.214215	0	0	0.0304921	-0.110792	-0.179271	0.572958	-0.0301451	0	0	-0.0508359	0.132316	0.000850696	-0.283858	-0.290701	0.168298	0.520753	1.18649	0	0	0.405967	-0.536053	0.945946	0.699754	1.18135	0	0
1.21	0.908701	1.46012	0.925081	0.665391	1.60684	1.00146	0.507726	-0.038877	0.0356902	0.0722919	-0.290128	0	0	0.0162927	-0.119663	-0.179596	0.57107	-0.030722	0	0	-0.0555519	0.138111	-0.00398014	-0.279554	-0.293978	0.180713	0.517233	1.17297	0	0	0.401908	-0.539113	0.928313	0.706282	1.19496	0	0
1.22	0.913944	1.45617	0.923307	0.665363	1.61843	1.00004	0.498902	-0.0361576	0.0432932	0.0395689	-0.298346	0	0	0.00776779	-0.127303	-0.182113	0.572725	-0.0310156	0	0	-0.0543	0.1422	-0.00696074	-0.276841	-0.296974	0.193926	0.512969	1.15529	0	0	0.399603	-0.54158	0.921942	0.709634	1.19538	0	0
1.23	0.906001	1.45212	0.933587	0.665481	1.63005	0.998533	0.500998	-0.0327237	0.0411706	0.0341715	-0.295222	0	0	0.000857196	-0.13367	-0.185058	0.575389	-0.0322553	0	0	-0.05205	0.14533	-0.00842692	-0.275967	-0.298528	0.199948	0.51017	1.14546	0	0	0.397459	-0.543589	0.918722	0.711197	1.19475	0	0
1.24	0.899486	1.44877	0.942666	0.665652	1.6418	0.997089	0.505274	-0.0284838	0.0374568	0.040777	-0.2888	0	0	-0.00612255	-0.13976	-0.187072	0.578689	-0.0339999	0	0	-0.0504509	0.148241	-0.0101928	-0.275037	-0.300293	0.207458	0.50745	1.13398	0	0	0.394364	-0.545825	0.916225	0.712224	1.19429	0	0
1.25	0.885182	1.44461	0.960291	0.665823	1.65371	0.995471	0.516553	-0.0240279	0.0263558	0.0674008	-0.276337	0	0	-0.0102149	-0.145797	-0.187768	0.584451	-0.0384206	0	0	-0.0471075	0.151944	-0.0150442	-0.279469	-0.292496	0.167982	0.508337	1.18461	0	0	0.385666	-0.548489	0.906454	0.71366	1.19752	0	0
1.26	0.877691	1.44135	0.972095	0.665898	1.66585	0.993931	0.526295	-0.0192854	0.0160297	0.100913	-0.267301	0	0	-0.0146146	-0.151952	-0.186484	0.59113	-0.0436343	0	0	-0.0446217	0.15519	-0.0199434	-0.279711	-0.294681	0.175821	0.507237	1.1744	0	0	0.377493	-0.552164	0.90175	0.716116	1.19733	0	0
1.27	0.873236	1.43844	0.982114	0.665793	1.67826	0.992397	0.534954	-0.0146462	0.00501156	0.139299	-0.267539	0	0	-0.0183076	-0.158099	-0.182555	0.59944	-0.0500961	0	0	-0.0420809	0.158928	-0.0261523	-0.281031	-0.297803	0.1858	0.507454	1.16213	0	0	0.367561	-0.556029	0.896987	0.718963	1.19625	0	0
1.28	0.875747	1.43644	0.98548	0.66558	1.69094	0.990967	0.53882	-0.00983162	-0.00297063	0.170961	-0.279461	0	0	-0.0224262	-0.164413	-0.176986	0.609306	-0.0575219	0	0	-0.040716	0.163283	-0.0321844	-0.283075	-0.301886	0.198194	0.508534	1.14788	0	0	0.35667	-0.559728	0.893194	0.721844	1.19597	0	0
1.29	0.888658	1.43484	0.977404	0.665325	1.70371	0.989819	0.538432	-0.00453135	-0.00795181	0.190474	-0.291516	0	0	-0.0268641	-0.171099	-0.169464	0.62085	-0.0647139	0	0	-0.04107	0.169199	-0.0367337	-0.284946	-0.307129	0.212358	0.509787	1.13034	0	0	0.345269	-0.562276	0.889952	0.723594	1.19523	0	0
1.3	0.919635	1.4332	0.949282	0.665061	1.71644	0.989248	0.533384	0.00211247	-0.00992601	0.19334	-0.353861	0	0	-0.0314826	-0.179356	-0.161554	0.634913	-0.0759901	0	0	-0.0455043	0.17968	-0.0429528	-0.292024	-0.30078	0.161533	0.5171	1.19822	0	0	0.323544	-0.56194	0.861983	0.725191	1.21404	0	0
1.31	0.947716	1.42946	0.922202	0.664986	1.72922	0.988993	0.535782	0.00985029	-0.0181664	0.211687	-0.363718	0	0	-0.0318918	-0.18816	-0.151609	0.653526	-0.0874714	0	0	-0.0474533	0.189906	-0.0451119	-0.293203	-0.306092	0.168951	0.519125	1.18848	0	0	0.306715	-0.561239	0.850285	0.723848	1.217	0	0
1.32	0.967599	1.4249	0.901064	0.665197	1.74206	0.989017	0.545001	0.0182844	-0.031426	0.249341	-0.366581	0	0	-0.0287163	-0.196386	-0.141512	0.676934	-0.101941	0	0	-0.0481554	0.199441	-0.0457085	-0.29381	-0.311042	0.17689	0.520491	1.17453	0	0	0.288004	-0.560304	0.838065	0.721492	1.21635	0	0
1.33	0.973058	1.42078	0.891875	0.665639	1.75486	0.989186	0.55854	0.0255578	-0.0431409	0.297153	-0.361006	0	0	-0.021987	-0.20192	-0.131823	0.705666	-0.119294	0	0	-0.0478809	0.20661	-0.0446462	-0.293927	-0.315891	0.186772	0.521547	1.15434	0	0	0.267787	-0.559517	0.826237	0.718622	1.21373	0	0
1.34	0.970371	1.41811	0.889356	0.666171	1.76758	0.989575	0.570438	0.0315712	-0.04823	0.340725	-0.347198	0	0	-0.0122249	-0.204607	-0.121362	0.739301	-0.140069	0	0	-0.0481201	0.211703	-0.0423692	-0.293449	-0.320767	0.199894	0.52204	1.1303	0	0	0.247405	-0.558632	0.816607	0.714929	1.20861	0	0
1.35	0.972118	1.41766	0.882257	0.666715	1.78022	0.990314	0.575666	0.0372488	-0.0491482	0.374104	-0.332721	0	0	-0.00092229	-0.205371	-0.108193	0.776517	-0.160661	0	0	-0.0511153	0.215807	-0.0391516	-0.292405	-0.32517	0.214072	0.521865	1.10624	0	0	0.228398	-0.557423	0.81063	0.71024	1.20128	0	0
1.36	0.974332	1.41751	0.875164	0.667318	1.79275	0.991186	0.576408	0.0428056	-0.051985	0.398537	-0.339008	0	0	0.0146594	-0.205535	-0.0924367	0.816781	-0.18702	0	0	-0.0548254	0.220192	-0.0364636	-0.29439	-0.322077	0.196223	0.522469	1.12578	0	0	0.207442	-0.55416	0.798182	0.703635	1.20217	0	0
1.37	0.963585	1.41548	0.881371	0.668038	1.80511	0.991794	0.579562	0.0470761	-0.0616608	0.423888	-0.314503	0	0	0.0377074	-0.204689	-0.0735322	0.859332	-0.22722	0	0	-0.0542077	0.223576	-0.036064	-0.296192	-0.317868	0.177219	0.522398	1.14873	0	0	0.185108	-0.552115	0.789227	0.697289	1.19347	0	0
1.38	0.964342	1.41323	0.876257	0.668746	1.8172	0.992531	0.576172	0.0532034	-0.0709157	0.436274	-0.30275	0	0	0.0619158	-0.203554	-0.0503538	0.90193	-0.255205	0	0	-0.0558278	0.228092	-0.0331349	-0.296014	-0.320286	0.186204	0.52289	1.13441	0	0	0.165977	-0.549401	0.784432	0.690976	1.18484	0	0
1.39	0.96859	1.41048	0.86803	0.66929	1.82893	0.993281	0.569966	0.0597712	-0.0797233	0.443185	-0.289813	0	0	0.0874379	-0.20098	-0.0234032	0.944139	-0.26996	0	0	-0.0581878	0.233471	-0.029569	-0.296006	-0.324108	0.198419	0.524834	1.11715	0	0	0.148249	-0.545694	0.780933	0.684606	1.17632	0	0
1.4	0.975736	1.40782	0.856246	0.669745	1.84039	0.994098	0.562209	0.0664884	-0.0875711	0.448053	-0.272083	0	0	0.112551	-0.197466	0.00310282	0.985682	-0.268142	0	0	-0.0618134	0.239079	-0.0253189	-0.295723	-0.329072	0.213078	0.528213	1.09377	0	0	0.130689	-0.541538	0.77689	0.678958	1.16888	0	0
1.41	0.988095	1.40664	0.837144	0.670268	1.85176	0.99527	0.550432	0.0739415	-0.0912723	0.447552	-0.274483	0	0	0.134946	-0.194165	0.0222904	1.02585	-0.263597	0	0	-0.06816	0.244063	-0.0178575	-0.297281	-0.32861	0.204285	0.531197	1.10358	0	0	0.115168	-0.535778	0.773647	0.671081	1.16843	0	0
1.42	0.998507	1.40691	0.818974	0.670702	1.86302	0.996747	0.536538	0.0802308	-0.0928907	0.445721	-0.272153	0	0	0.15682	-0.189763	0.0363334	1.06724	-0.253456	0	0	-0.0751084	0.24744	-0.0100473	-0.298747	-0.328709	0.196367	0.535051	1.112	0	0	0.100278	-0.528877	0.771289	0.661254	1.16659	0	0
1.43	1.00679	1.41015	0.801558	0.671156	1.87425	0.998643	0.519207	0.0847174	-0.0914307	0.44199	-0.267011	0	0	0.176594	-0.183787	0.0447619	1.10664	-0.242132	0	0	-0.083737	0.247746	-0.00165763	-0.299066	-0.327838	0.188639	0.537372	1.11796	0	0	0.0861847	-0.521547	0.769903	0.649777	1.16406	0	0
